<svg xmlns="http://www.w3.org/2000/svg" xmlns:xlink="http://www.w3.org/1999/xlink" width="76" height="30" viewBox="0 0 76 30"><defs><path id="b" d="M190.852 47.415H196l-5.502 15.637c-1.653 4.703-4.2 6.8-8.087 6.94-.35.013-62.04.01-62.411-.009V65.47c.404 0 62.099-.023 62.43-.072 1.52-.223 2.34-.99 2.92-2.604l-6.402-15.379h5.309l3.571 9.866zm-18.499 16.12V40h4.826v23.535zm-8.365 0V40h4.816v23.535zm-12.198-4.127c2.217 0 3.823-1.515 3.823-3.933s-1.606-3.933-3.823-3.933c-2.217 0-3.824 1.515-3.824 3.933s1.607 3.933 3.824 3.933zm3.833-11.993h4.826v16.13h-4.826v-1.516c-1.061 1.226-2.638 1.968-4.793 1.968-4.215 0-7.69-3.71-7.69-8.517 0-4.806 3.475-8.516 7.69-8.516 2.155 0 3.732.742 4.793 1.968zM131.72 63.987c-6.789 0-11.711-5.094-11.711-11.736 0-6.641 4.922-11.735 11.71-11.735 4.087 0 7.69 2.031 9.653 5.223l-4.44 2.579c-.997-1.741-2.928-2.773-5.212-2.773-3.99 0-6.563 2.676-6.563 6.706s2.573 6.706 6.563 6.706c2.284 0 4.247-1.032 5.212-2.773l4.44 2.58c-1.93 3.191-5.534 5.223-9.652 5.223z"/><linearGradient id="a" x1="77.23" x2="221.79" y1="93.56" y2="30" gradientUnits="userSpaceOnUse"><stop offset="0" stop-color="#21d4fd"/><stop offset="1" stop-color="#b721ff"/></linearGradient></defs><use fill="url(#a)" xlink:href="#b" transform="translate(-120 -40)"/></svg>